<svg width="20" height="20" viewBox="-0.5 0 22 20" fill="none" xmlns="http://www.w3.org/2000/svg">
<path d="M15.0241 1.08527L11.497 2.33483C11.1754 2.44898 10.8236 2.44898 10.503 2.33483L6.97589 1.08527C6.47945 0.909967 5.92576 1.00883 5.52611 1.34619L1.50773 4.73203C1.10079 5.0755 0.918655 5.60957 1.03418 6.12428L1.89801 9.97283C1.95942 10.247 2.102 10.4967 2.30703 10.6924L9.98266 17.9869C10.5499 18.5261 11.4512 18.5261 12.0173 17.9869L19.693 10.6924C19.898 10.4967 20.0406 10.247 20.102 9.97283L20.9658 6.12428C21.0813 5.61059 20.8992 5.0755 20.4923 4.73203L16.4739 1.34619C16.0742 1.00883 15.5195 0.909967 15.0241 1.08527Z" fill="#DD57FF"/>
</svg>
